<mxfile host="Electron" agent="Mozilla/5.0 (Windows NT 10.0; Win64; x64) AppleWebKit/537.36 (KHTML, like Gecko) draw.io/24.7.8 Chrome/128.0.6613.36 Electron/32.0.1 Safari/537.36" version="24.7.8">
  <diagram name="Page-1" id="PRazksmlACbkOJoAolV-">
    <mxGraphModel dx="350" dy="210" grid="1" gridSize="10" guides="1" tooltips="1" connect="1" arrows="1" fold="1" page="1" pageScale="1" pageWidth="827" pageHeight="1169" math="0" shadow="0">
      <root>
        <mxCell id="0" />
        <mxCell id="1" parent="0" />
        <mxCell id="yaq-Ze-lCpl4sGBcAVeJ-2" value="" style="endArrow=open;html=1;rounded=0;endFill=0;" edge="1" parent="1">
          <mxGeometry width="50" height="50" relative="1" as="geometry">
            <mxPoint x="160" y="320" as="sourcePoint" />
            <mxPoint x="160" y="180" as="targetPoint" />
          </mxGeometry>
        </mxCell>
        <mxCell id="yaq-Ze-lCpl4sGBcAVeJ-3" value="" style="endArrow=open;html=1;rounded=0;endFill=0;" edge="1" parent="1">
          <mxGeometry width="50" height="50" relative="1" as="geometry">
            <mxPoint x="160" y="320" as="sourcePoint" />
            <mxPoint x="360" y="320" as="targetPoint" />
          </mxGeometry>
        </mxCell>
        <mxCell id="yaq-Ze-lCpl4sGBcAVeJ-4" value="x(t)" style="text;html=1;align=center;verticalAlign=middle;whiteSpace=wrap;rounded=0;" vertex="1" parent="1">
          <mxGeometry x="115" y="160" width="60" height="30" as="geometry" />
        </mxCell>
        <mxCell id="yaq-Ze-lCpl4sGBcAVeJ-5" value="t" style="text;html=1;align=center;verticalAlign=middle;whiteSpace=wrap;rounded=0;" vertex="1" parent="1">
          <mxGeometry x="340" y="305" width="60" height="30" as="geometry" />
        </mxCell>
        <mxCell id="yaq-Ze-lCpl4sGBcAVeJ-8" value="" style="endArrow=none;html=1;rounded=0;" edge="1" parent="1">
          <mxGeometry width="50" height="50" relative="1" as="geometry">
            <mxPoint x="180" y="320" as="sourcePoint" />
            <mxPoint x="180" y="314" as="targetPoint" />
          </mxGeometry>
        </mxCell>
        <mxCell id="yaq-Ze-lCpl4sGBcAVeJ-9" value="" style="endArrow=none;html=1;rounded=0;" edge="1" parent="1">
          <mxGeometry width="50" height="50" relative="1" as="geometry">
            <mxPoint x="200" y="320" as="sourcePoint" />
            <mxPoint x="200" y="314" as="targetPoint" />
          </mxGeometry>
        </mxCell>
        <mxCell id="yaq-Ze-lCpl4sGBcAVeJ-10" value="" style="endArrow=none;html=1;rounded=0;" edge="1" parent="1">
          <mxGeometry width="50" height="50" relative="1" as="geometry">
            <mxPoint x="220" y="320" as="sourcePoint" />
            <mxPoint x="220" y="314" as="targetPoint" />
          </mxGeometry>
        </mxCell>
        <mxCell id="yaq-Ze-lCpl4sGBcAVeJ-11" value="" style="endArrow=none;html=1;rounded=0;" edge="1" parent="1">
          <mxGeometry width="50" height="50" relative="1" as="geometry">
            <mxPoint x="240" y="320" as="sourcePoint" />
            <mxPoint x="240" y="314" as="targetPoint" />
          </mxGeometry>
        </mxCell>
        <mxCell id="yaq-Ze-lCpl4sGBcAVeJ-12" value="" style="endArrow=none;html=1;rounded=0;" edge="1" parent="1">
          <mxGeometry width="50" height="50" relative="1" as="geometry">
            <mxPoint x="260" y="320" as="sourcePoint" />
            <mxPoint x="260" y="314" as="targetPoint" />
          </mxGeometry>
        </mxCell>
        <mxCell id="yaq-Ze-lCpl4sGBcAVeJ-13" value="" style="endArrow=none;html=1;rounded=0;" edge="1" parent="1">
          <mxGeometry width="50" height="50" relative="1" as="geometry">
            <mxPoint x="280" y="320" as="sourcePoint" />
            <mxPoint x="280" y="314" as="targetPoint" />
          </mxGeometry>
        </mxCell>
        <mxCell id="yaq-Ze-lCpl4sGBcAVeJ-14" value="" style="endArrow=none;html=1;rounded=0;" edge="1" parent="1">
          <mxGeometry width="50" height="50" relative="1" as="geometry">
            <mxPoint x="300" y="320" as="sourcePoint" />
            <mxPoint x="300" y="314" as="targetPoint" />
          </mxGeometry>
        </mxCell>
        <mxCell id="yaq-Ze-lCpl4sGBcAVeJ-15" value="" style="endArrow=none;html=1;rounded=0;" edge="1" parent="1">
          <mxGeometry width="50" height="50" relative="1" as="geometry">
            <mxPoint x="320" y="320" as="sourcePoint" />
            <mxPoint x="320" y="314" as="targetPoint" />
          </mxGeometry>
        </mxCell>
        <mxCell id="yaq-Ze-lCpl4sGBcAVeJ-17" value="" style="endArrow=none;html=1;rounded=0;" edge="1" parent="1">
          <mxGeometry width="50" height="50" relative="1" as="geometry">
            <mxPoint x="160" y="200" as="sourcePoint" />
            <mxPoint x="166" y="200" as="targetPoint" />
          </mxGeometry>
        </mxCell>
        <mxCell id="yaq-Ze-lCpl4sGBcAVeJ-18" value="" style="endArrow=none;html=1;rounded=0;" edge="1" parent="1">
          <mxGeometry width="50" height="50" relative="1" as="geometry">
            <mxPoint x="160" y="260" as="sourcePoint" />
            <mxPoint x="166" y="260" as="targetPoint" />
          </mxGeometry>
        </mxCell>
        <mxCell id="yaq-Ze-lCpl4sGBcAVeJ-19" value="&lt;font style=&quot;font-size: 6px;&quot;&gt;1&lt;/font&gt;" style="text;html=1;align=center;verticalAlign=middle;whiteSpace=wrap;rounded=0;" vertex="1" parent="1">
          <mxGeometry x="175" y="320" width="10" height="10" as="geometry" />
        </mxCell>
        <mxCell id="yaq-Ze-lCpl4sGBcAVeJ-20" value="&lt;font style=&quot;font-size: 6px;&quot;&gt;2&lt;/font&gt;" style="text;html=1;align=center;verticalAlign=middle;whiteSpace=wrap;rounded=0;" vertex="1" parent="1">
          <mxGeometry x="195" y="320" width="10" height="10" as="geometry" />
        </mxCell>
        <mxCell id="yaq-Ze-lCpl4sGBcAVeJ-22" value="&lt;font style=&quot;font-size: 6px;&quot;&gt;3&lt;/font&gt;" style="text;html=1;align=center;verticalAlign=middle;whiteSpace=wrap;rounded=0;" vertex="1" parent="1">
          <mxGeometry x="215" y="320" width="10" height="10" as="geometry" />
        </mxCell>
        <mxCell id="yaq-Ze-lCpl4sGBcAVeJ-23" value="&lt;font style=&quot;font-size: 6px;&quot;&gt;4&lt;/font&gt;" style="text;html=1;align=center;verticalAlign=middle;whiteSpace=wrap;rounded=0;" vertex="1" parent="1">
          <mxGeometry x="235" y="320" width="10" height="10" as="geometry" />
        </mxCell>
        <mxCell id="yaq-Ze-lCpl4sGBcAVeJ-25" value="&lt;font style=&quot;font-size: 6px;&quot;&gt;5&lt;/font&gt;" style="text;html=1;align=center;verticalAlign=middle;whiteSpace=wrap;rounded=0;" vertex="1" parent="1">
          <mxGeometry x="260" y="320" width="10" height="10" as="geometry" />
        </mxCell>
      </root>
    </mxGraphModel>
  </diagram>
</mxfile>
